# xmcd
#
# Track frame offsets:
#	150
#	18905
#	34160
#
# Disc length: 770 seconds
#
# Revision: 1
# Processed by: cddbd v1.5.2PL0 Copyright (c) Steve Scherf et al.
# Submitted via: audiograbber 1.83.01
#
DISCID=19030003
DTITLE=Destiny's Child - Get On The Bus (Single)
DYEAR=1998
DGENRE=R&B
TTITLE0=Get On The Bus ft. Timbaland
TTITLE1=Get On The Bus (Radio)
TTITLE2=Birthday
EXTD=Destiny´s Child		
EXTT0=
EXTT1=
EXTT2=
PLAYORDER=
